<svg id="Layer_1" data-name="Layer 1" xmlns="http://www.w3.org/2000/svg" viewBox="0 0 828.12 763.04"><defs><style>.cls-1,.cls-3{fill:#fff;}.cls-2{fill:#547d8f;}.cls-3{stroke:#fff;stroke-miterlimit:10;stroke-width:5px;}</style></defs><title>logo</title><path class="cls-1" d="M543.08,155.34c163,1.31,291,132.23,289.57,295.74C831.33,610.79,699.23,738.42,537.16,737c-159.44-1.31-288.25-132.89-286.81-292.85C251.67,283.1,382.58,153.89,543.08,155.34ZM263.76,445.43C263.1,598.7,387.84,724,541.24,724.22c152.6.27,277-123.42,278-276.29C820.16,294.4,696.47,169,543,168.09,389.81,167.17,264.42,291.78,263.76,445.43Z" transform="translate(-124.28 -155.32)"/><path class="cls-2" d="M263.76,445.43c.66-153.65,126.05-278.26,279-277.21,153.53.92,277.35,126.32,276.3,279.84-.92,152.87-125.4,276.56-278,276.3C387.71,724,263.1,598.7,263.76,445.43Zm403.66,155.5c1.84-1.45,3.81-2.89,5.65-4.34-2.89-5-5.25-10.25-8.54-14.85-12.88-18-25.5-36.28-39.17-53.63-7.23-9.2-7.75-15.64-.39-25.5,29.57-40.09,58.23-80.84,87.14-121.45,5.92-8.28,12-16.3,17.88-24.58,1.18.39,2.5.79,3.68,1.18v80.31c0,27.74-.13,55.34,0,83.07.13,26-.53,52.06.39,78l6.45-.39V332.13c-1.58-.66-3-1.18-4.61-1.84-41.53,58.23-82.94,116.33-125.39,176-6-8.15-10.91-14.33-15.51-20.77-34.18-47.45-68-95-102.66-142.09-4.07-5.65-12.09-11.83-18.4-12-51-.92-102.13-.52-153.13-.26-3.29,0-6.58,2.5-9.86,3.81.26,1.58.39,3.15.66,4.73,5.65.4,11.3,1.32,16.95,1.32,44.3.13,88.59.52,132.89-.27,13.28-.26,21,4.47,28.66,15,54.81,77.16,110.28,154,165.61,230.94C659.14,591.47,663.48,596.2,667.42,600.93ZM395.2,598.7c2.63.26,5.26.39,7.89.65V373.93c14.72,0,25.89,1.18,36.67-.27,16.83-2.1,26.42,5.13,35.89,18.67C521.13,457.26,567.53,521.54,613.79,586c3.82,5.38,8.81,10,13.15,15,1.31-1,2.63-2,3.94-3-2-3.95-3.42-8.28-6-11.83-50.34-71.25-100.68-142.62-151.55-213.47-3.55-4.86-11.83-8.8-17.88-8.94-43.63-.78-87.27-.52-130.91-.26-4.6,0-9.2,1.71-13.8,2.76l.39,7.1h84C395.2,451,395.2,524.82,395.2,598.7ZM484.58,445c-2.62-.13-5.12-.13-7.75-.26.13,51-.79,102,.66,153h7Q484.65,521.28,484.58,445Z" transform="translate(-124.28 -155.32)"/><path class="cls-3" d="M395.2,598.7V373h-84l-.39-7.1c4.6-.92,9.2-2.63,13.8-2.76,43.64-.26,87.28-.53,130.92.26,6.17.13,14.32,4.08,17.87,8.94C524.28,443.2,574.62,514.57,625,585.81c2.49,3.55,4.07,7.89,6,11.83-1.31,1.06-2.63,2-3.94,3-4.47-5-9.33-9.6-13.14-15-46.27-64.4-92.67-128.55-138.15-193.61-9.47-13.41-18.93-20.77-35.89-18.67-10.77,1.45-21.95.26-36.67.26V599.09C400.46,599.09,397.83,599,395.2,598.7Z" transform="translate(-124.28 -155.32)"/><path class="cls-3" d="M484.58,445V597.78h-7c-1.45-51-.53-102-.66-153C479.46,444.78,482,444.91,484.58,445Z" transform="translate(-124.28 -155.32)"/><path class="cls-3" d="M667.42,600.93c-3.94-4.86-8.28-9.46-12-14.59q-83-115.34-165.62-231c-7.49-10.51-15.24-15.24-28.65-15-44.3.92-88.59.39-132.89.26-5.65,0-11.31-.79-17-1.31-.26-1.58-.39-3.16-.65-4.73,3.28-1.32,6.57-3.68,9.85-3.82,51.13-.26,102.14-.65,153.14.27,6.3.13,14.19,6.31,18.4,12,34.57,47,68.48,94.64,102.65,142.09,4.6,6.44,9.47,12.75,15.51,20.77,42.46-59.55,84-117.78,125.4-176,1.58.66,3,1.19,4.6,1.84V598.3l-6.44.4c-.92-25.9-.26-51.92-.39-78-.13-27.74,0-55.34,0-83.07V357.37c-1.19-.4-2.5-.79-3.68-1.19-5.92,8.15-12,16.3-17.88,24.58-29.05,40.49-57.57,81.37-87.15,121.46-7.36,9.85-6.83,16.29.4,25.5,13.67,17.35,26.29,35.62,39.17,53.62,3.28,4.61,5.78,9.86,8.54,14.86A31.25,31.25,0,0,1,667.42,600.93Z" transform="translate(-124.28 -155.32)"/><rect class="cls-1" x="182.6" y="172.9" width="22.74" height="14.91"/><rect class="cls-1" x="182.86" y="205.28" width="22.74" height="14.92"/><path d="M140.05,893.65v4.7c0,2.64.57,5.22,3.17,5.22s3-2.25,3-4.75v-.19h5.2v.17c0,3.35-.74,9.29-8.13,9.29-7.2,0-8.46-4.55-8.46-10.74V886.76c0-4.37,1.44-10.18,8.47-10.18,6.26,0,8.22,4.39,8.22,10.16v6.91Zm6.37-4.23V886c0-2.83-.57-4.9-3.12-4.9-2.34,0-3.21,1.81-3.21,4.92v3.4Z" transform="translate(-124.28 -155.32)"/><path d="M179.86,885.89c0-5.85,0-7.41-.06-8.83h5.08a21.5,21.5,0,0,1,.21,2.76,5.52,5.52,0,0,1,5.31-3.24,4.54,4.54,0,0,1,4.83,3.4,6.16,6.16,0,0,1,5.77-3.4c3.18,0,5.92,1.54,5.92,7.48v23.56h-5.33V885.07c0-2.24-.52-3.68-2.51-3.68-2.44,0-3,2-3,5.16v21.07h-5.36V885.26c0-3-.84-3.87-2.55-3.87-2.43,0-3,2.07-3,5.22v21h-5.33Z" transform="translate(-124.28 -155.32)"/><path d="M236.33,866.16h5.33v13.58a5.64,5.64,0,0,1,5.43-3.16c4.48,0,6.33,3.67,6.33,9.08v11.07c0,6.67-1.25,11.33-7,11.33a5,5,0,0,1-5.06-3.24,25.26,25.26,0,0,1-.2,2.8h-4.84c.1-1.94.06-4.65.06-8Zm11.74,31.54V886.5c0-3.14-.6-5.11-3-5.11-2.87,0-3.47,2.51-3.47,6.3v9.83c0,3.9,1,5.73,3.3,5.73C247,903.25,248.07,901.53,248.07,897.7Z" transform="translate(-124.28 -155.32)"/><path d="M281.92,887.43c0-5,0-7.42-.06-10.37h5.06c.06.68.16,3.06.16,4.87,1.18-4,3.84-5.28,6.61-5.31v6.57c-3.6,0-6.44,1.44-6.44,7.39v17h-5.33Z" transform="translate(-124.28 -155.32)"/><path d="M335.86,901.76c0,2,0,4.8.12,5.86h-4.89c-.14-.65-.32-1.88-.36-2.35a5.09,5.09,0,0,1-5,2.82c-4.51,0-6.33-4.11-6.33-8.77v-.53c0-7.28,4.75-9.46,10.23-9.46h1V885c0-2.55-.36-4.07-2.44-4.07s-2.56,1.58-2.56,3.68v.63h-5.24v-.55c0-4.35,1.69-8.15,8-8.15,5.66,0,7.56,3.29,7.56,8Zm-5.2-8.33h-1.21c-3.06,0-5,1.22-5,5.28v.49c0,2.4.81,4.21,2.92,4.21,2.35,0,3.28-1.76,3.28-6.07Z" transform="translate(-124.28 -155.32)"/><path d="M380.55,897.67v.42c0,5.42-1.37,10-8.13,10-6.6,0-7.95-4.47-7.95-10.73V886.3c0-5.07,1.75-9.72,8.23-9.72,7,0,7.85,5.07,7.85,9v1.18h-5.26v-1.19c0-2.53-.41-4.45-2.69-4.45-2,0-2.79,1.56-2.79,4.57v13.19c0,2.39.45,4.71,2.75,4.71,2.15,0,2.73-1.58,2.73-4.65v-1.25Z" transform="translate(-124.28 -155.32)"/><path d="M408.65,877.06H414v30.56h-5.33Zm0-10.9H414v6.38h-5.33Z" transform="translate(-124.28 -155.32)"/><path d="M443.43,886.43c0-6.17,0-7.93-.06-9.37h5.08a22.29,22.29,0,0,1,.2,2.89,5.64,5.64,0,0,1,5.62-3.37c3.56,0,6.17,2.11,6.17,7.82v23.22h-5.33v-22.2c0-2.84-1-4-2.87-4-2.32,0-3.49,1.2-3.49,6v20.2h-5.32Z" transform="translate(-124.28 -155.32)"/><path d="M506.07,906.36c0,6.53-.68,12-8.94,12-6.89,0-8.11-4.44-8.11-7.8v-.14h5.35v.16c0,1.11.41,3.35,3.05,3.35s3.32-2.11,3.32-6.2v-3.58c-.79,1.85-2.46,3-5.09,3-5.19,0-6.65-4-6.65-9.49V885.79c0-4.67,1.88-9.21,7.29-9.21,3.18,0,4.54,1.54,5,3.16a18.13,18.13,0,0,1,.26-2.68h4.62c-.06,1.8-.12,4.42-.12,7.8ZM494.34,886.1v11.13c0,3.44.85,5.16,3,5.16,3,0,3.45-2.64,3.45-6.54v-9c0-3-.31-5.48-3.1-5.48C495.43,881.39,494.34,882.92,494.34,886.1Z" transform="translate(-124.28 -155.32)"/><path d="M582.65,897.67v.42c0,5.42-1.37,10-8.13,10-6.59,0-7.95-4.47-7.95-10.73V886.3c0-5.07,1.75-9.72,8.23-9.72,7,0,7.85,5.07,7.85,9v1.18h-5.26v-1.19c0-2.53-.41-4.45-2.69-4.45-2,0-2.79,1.56-2.79,4.57v13.19c0,2.39.45,4.71,2.76,4.71,2.14,0,2.72-1.58,2.72-4.65v-1.25Z" transform="translate(-124.28 -155.32)"/><path d="M610.52,887.43c0-5,0-7.42-.06-10.37h5.06c.05.68.16,3.06.16,4.87,1.17-4,3.84-5.28,6.61-5.31v6.57c-3.61,0-6.45,1.44-6.45,7.39v17h-5.32Z" transform="translate(-124.28 -155.32)"/><path d="M654,893.65v4.7c0,2.64.57,5.22,3.17,5.22s3-2.25,3-4.75v-.19h5.2v.17c0,3.35-.74,9.29-8.13,9.29-7.2,0-8.46-4.55-8.46-10.74V886.76c0-4.37,1.44-10.18,8.47-10.18,6.26,0,8.22,4.39,8.22,10.16v6.91Zm6.37-4.23V886c0-2.83-.57-4.9-3.12-4.9-2.34,0-3.21,1.81-3.21,4.92v3.4Z" transform="translate(-124.28 -155.32)"/><path d="M709,901.76c0,2,0,4.8.12,5.86h-4.89c-.14-.65-.33-1.88-.37-2.35-1,2-2.76,2.82-5,2.82-4.52,0-6.33-4.11-6.33-8.77v-.53c0-7.28,4.74-9.46,10.22-9.46h1V885c0-2.55-.37-4.07-2.45-4.07s-2.55,1.58-2.55,3.68v.63h-5.24v-.55c0-4.35,1.69-8.15,8-8.15,5.66,0,7.56,3.29,7.56,8Zm-5.2-8.33h-1.21c-3.07,0-5,1.22-5,5.28v.49c0,2.4.81,4.21,2.91,4.21,2.36,0,3.29-1.76,3.29-6.07Z" transform="translate(-124.28 -155.32)"/><path d="M735.62,877.06H739v-7.41h5.3v7.41h4v4.69h-4v19.09c0,1.49.23,2.8,2.11,2.8a7.6,7.6,0,0,0,1.77-.18v4a9.38,9.38,0,0,1-3.55.55c-3.46,0-5.63-1.23-5.63-6.27v-20h-3.36Z" transform="translate(-124.28 -155.32)"/><path d="M775.58,877.06h5.33v30.56h-5.33Zm0-10.9H781v6.38h-5.32Z" transform="translate(-124.28 -155.32)"/><path d="M813.78,877.06c1,5.64,3.1,18.26,3.84,24.59h.06c.52-6,3.07-18.6,4-24.59h5.35l-6.54,30.56h-6l-6.4-30.56Z" transform="translate(-124.28 -155.32)"/><path d="M854.11,877.06h5.32v30.56h-5.32Zm0-10.9h5.32v6.38h-5.32Z" transform="translate(-124.28 -155.32)"/><path d="M886.36,877.06h3.36v-7.41H895v7.41h4v4.69h-4v19.09c0,1.49.24,2.8,2.11,2.8a7.6,7.6,0,0,0,1.77-.18v4a9.34,9.34,0,0,1-3.55.55c-3.46,0-5.63-1.23-5.63-6.27v-20h-3.36Z" transform="translate(-124.28 -155.32)"/><path d="M931,877.06c1.79,10.47,3.49,20.31,3.74,24.09h.15c.57-5.13,2.13-12.76,4-24.09h5.34l-6.83,32.09c-1.87,8.67-4.8,9.16-8.22,9.16a16.21,16.21,0,0,1-2.59-.24l.08-4.79a11.15,11.15,0,0,0,1.76.16c2,0,3-.79,3.68-4.65l-6.84-31.73Z" transform="translate(-124.28 -155.32)"/><path d="M195.47,701a4.78,4.78,0,0,1,.18,1.46q8.31-.36,16.72-.78t16.3-.82q7.91-.4,14.89-.73t12.42-.55l9-.36c2.37-.1,3.89-.14,4.57-.14q2.37,0,3.24,1.05a3.3,3.3,0,0,1,.68,2.6,7.11,7.11,0,0,1-1.05,2.7,17,17,0,0,1-2,2.64,13.14,13.14,0,0,1-2.37,2.06,4,4,0,0,1-2.15.82h-32q-9.31,0-19.82.05t-20.64.13q-1.83,6-5.11,14.71T181,744.7q-4.06,10.23-8.77,21.42t-9.45,22.19q-4.76,11-9.32,21.28t-8.35,18.64q-3.79,8.35-6.63,14.24t-4.11,8.18a3.69,3.69,0,0,1-1.82,1.28,8.45,8.45,0,0,1-3.11.55,5.93,5.93,0,0,1-3.74-1.28,3.63,3.63,0,0,1-1.37-3.56q1.46-6.5,4.24-15.39t6.08-18.87q2.55-7.75,5.25-16T145,780.82q2.42-8.27,4.33-16.3t2.93-15.35a86.15,86.15,0,0,0,1-14.06,36,36,0,0,0-1.88-11.33A17.09,17.09,0,0,0,146,716a16.22,16.22,0,0,0-9.45-3.29,4.66,4.66,0,0,1-3.2-1.2,2.62,2.62,0,0,1-.73-2.22,4.61,4.61,0,0,1,1.83-2.87,5.88,5.88,0,0,1,3.92-1.38c.43,0,1.84,0,4.25-.14s5.53-.22,9.36-.4l13.25-.64q7.48-.36,16-.81a8.6,8.6,0,0,0,.37-1,6,6,0,0,1,2.1-3.66,5.69,5.69,0,0,1,3.38-1,9.66,9.66,0,0,1,2.83.46,19.77,19.77,0,0,1,2.65,1,14.83,14.83,0,0,1,2,1.19,4.36,4.36,0,0,1,.91.77ZM143.22,806q2.57-6.4,5.71-14.48t6.44-16.9q3.28-8.8,6.67-17.9t6.39-17.49q3-8.4,5.62-15.58t4.34-12.28l-13.84.32q-6.35.14-10.73.41a13.46,13.46,0,0,1,4.43,5,23.88,23.88,0,0,1,2.37,7.45,52.74,52.74,0,0,1,.6,9.36,85.44,85.44,0,0,1-.92,10.78q-1.1,7.57-3.06,15.75t-4.38,16.26q-2.42,8.09-4.93,15.62T143.22,806Z" transform="translate(-124.28 -155.32)"/><path d="M187.52,825.08a13.7,13.7,0,0,0,3.47-.55A27.37,27.37,0,0,0,195.2,823c1.46-.67,3-1.46,4.52-2.37a47.4,47.4,0,0,0,4.52-3,34.18,34.18,0,0,1,.09-9c.18-1.21.41-2.42.68-3.61s.6-2.35,1-3.51a18.52,18.52,0,0,1,2.7-5.39,19.36,19.36,0,0,1,3.7-3.84,15.79,15.79,0,0,1,4.11-2.33,11.75,11.75,0,0,1,4-.77,6.47,6.47,0,0,1,4.75,1.82q1.81,1.83,1.37,5.48A15,15,0,0,1,226,799a20.75,20.75,0,0,1-1.37,3q-1.56,2.92-3.93,6.57a79.41,79.41,0,0,1-5.48,7.4,18.52,18.52,0,0,0,.59,4,10.86,10.86,0,0,0,1.46,3.29,6.59,6.59,0,0,0,2.42,2.19,6.86,6.86,0,0,0,3.57.69,11,11,0,0,0,5.43-1.6,20.59,20.59,0,0,0,4.61-3.79,33.34,33.34,0,0,0,3.79-5q1.69-2.69,3.06-5.16a22.19,22.19,0,0,1-1.59-2.55,12.81,12.81,0,0,1-1-2.56,9.39,9.39,0,0,1-.19-4.57,22.6,22.6,0,0,1,.87-3.42,12,12,0,0,1,1.74-3.34,12.69,12.69,0,0,1,2.78-2.74,10,10,0,0,1,3.93-1.64,5,5,0,0,1,4.11.59,7.5,7.5,0,0,1,2.56,3.15,11.75,11.75,0,0,1,1,4.57,17.54,17.54,0,0,1-.6,4.93v-.09c-.36,1.28-.76,2.53-1.19,3.75s-.85,2.4-1.27,3.56a6,6,0,0,0,3,.73,11.34,11.34,0,0,0,5.21-1.42,25.44,25.44,0,0,0,5.16-3.56,29.61,29.61,0,0,0,4.34-4.8,19.44,19.44,0,0,0,2.74-5.11,2.9,2.9,0,0,1,3.1-2.56,3.64,3.64,0,0,1,1.6.37,5.39,5.39,0,0,1,1.42,1,3.41,3.41,0,0,1,.91,1.32,2.44,2.44,0,0,1,.09,1.46A23.88,23.88,0,0,1,278,800a32,32,0,0,1-1.87,3.83,36.39,36.39,0,0,1-3.11,4.57,26.65,26.65,0,0,1-4.57,4.48,29,29,0,0,1-6.25,3.65,27.08,27.08,0,0,1-8.13,2,13.1,13.1,0,0,1-6.3-1.74,39.42,39.42,0,0,1-12.2,13,27.42,27.42,0,0,1-15.21,4.66,16.18,16.18,0,0,1-14.25-9.59,47.61,47.61,0,0,1-10.41,6.62A29.29,29.29,0,0,1,184,834.21a13.2,13.2,0,0,1-7.49-1.87,15.86,15.86,0,0,1-5-5,19.82,19.82,0,0,1-2.65-6.8,22.38,22.38,0,0,1-.28-7.22,39.1,39.1,0,0,1,2.15-8.49,51.84,51.84,0,0,1,3.43-7.26,42.53,42.53,0,0,1,4.06-5.94,41.72,41.72,0,0,1,4.11-4.39,32,32,0,0,1,3.47-2.78,6.27,6.27,0,0,1,2.24-1.1l1.74-.27,3-.41c1.1-.15,2.11-.26,3.06-.32a16.89,16.89,0,0,1,2.47,0c.69.06,1.14.27,1.32.64v-.18c.3.36.2.86-.32,1.5a25.38,25.38,0,0,1-2.33,2.42c-1.16,1.1-2.56,2.51-4.2,4.25a72.06,72.06,0,0,0-4.93,5.85,48.08,48.08,0,0,0-4.48,7.12,26.09,26.09,0,0,0-2.65,8.08,18.91,18.91,0,0,0-.23,5,12.17,12.17,0,0,0,1.1,4.11,7.57,7.57,0,0,0,2.38,2.88A5.94,5.94,0,0,0,187.52,825.08Zm31-28c-.25,0-.57.59-1,1.78s-.81,2.69-1.24,4.52a44.06,44.06,0,0,0,2-4.25c.51-1.31.62-2,.32-2Z" transform="translate(-124.28 -155.32)"/><path d="M257.4,822.61a23.57,23.57,0,0,1,.18-5.85,25.37,25.37,0,0,1,5.3-12.28,27.62,27.62,0,0,1,9.5-7.63,18,18,0,0,1,2.78-3.79,23.64,23.64,0,0,1,3.66-3.15,21.27,21.27,0,0,1,4.2-2.28,17.27,17.27,0,0,1,4.52-1.19,16.75,16.75,0,0,1,7.26.91,12.06,12.06,0,0,1,7.44,8,20.64,20.64,0,0,1,.92,5.35,19.94,19.94,0,0,1-.19,3.74,29.63,29.63,0,0,1-1.18,4.84,42.68,42.68,0,0,1-2,4.94,37.38,37.38,0,0,0,6.39-2.56,53.41,53.41,0,0,0,5.62-3.34q2.59-1.77,4.79-3.56c1.47-1.19,2.77-2.3,3.93-3.33.55-.49,1.08-.95,1.6-1.37l1.32-1.1a3.09,3.09,0,0,1,2.38-.73,3.41,3.41,0,0,1,2,1,3.46,3.46,0,0,1,1,2,3.59,3.59,0,0,1-.64,2.51,30.34,30.34,0,0,1-2.83,3.61,47.69,47.69,0,0,1-4.34,4.25,54.67,54.67,0,0,1-5.66,4.29,63.23,63.23,0,0,1-6.71,3.88,46.55,46.55,0,0,1-7.54,3,36.74,36.74,0,0,1-8.17,1.46,38.23,38.23,0,0,1-9.55,7.86,20.14,20.14,0,0,1-10.46,2.92,18.22,18.22,0,0,1-7.9-1.6,14.37,14.37,0,0,1-4.61-3.47,11.18,11.18,0,0,1-2.24-4A16.59,16.59,0,0,1,257.4,822.61Zm24.2.36q-5.57-1.54-8.08-4a11.35,11.35,0,0,1-3.24-5.39,12.7,12.7,0,0,0-.92,3.28,14.09,14.09,0,0,0-.13,1.42c0,.52-.05,1-.05,1.42a8.16,8.16,0,0,0,1.69,5,4.87,4.87,0,0,0,4.15,1.69,10.81,10.81,0,0,0,4.12-.82,19.9,19.9,0,0,0,3.92-2.19A10.88,10.88,0,0,1,281.6,823Zm2.47-8.67c1,.24,2,.44,3,.59s1.92.29,2.83.41a32.48,32.48,0,0,0,2.93-6.48,23.5,23.5,0,0,0,1.18-6.58,19,19,0,0,0,0-3.93,7,7,0,0,0-1.1-3.1,5.24,5.24,0,0,0-2.56-1.92,9.88,9.88,0,0,0-4.43-.37,7.71,7.71,0,0,0-2.92,1.19c1.16.12,2.13.25,2.92.37s1.31.83,1.74,2a13.79,13.79,0,0,1,.82,3.65,15.12,15.12,0,0,1,0,3.52c-.16,1-.45,1.52-.87,1.46a30.31,30.31,0,0,0-3.84-.27,17.2,17.2,0,0,0-5.11.73,17,17,0,0,0,0,2.47,6.56,6.56,0,0,0,.68,2.46,7.37,7.37,0,0,0,1.74,2.19A8.83,8.83,0,0,0,284.07,814.3Z" transform="translate(-124.28 -155.32)"/><path d="M312.47,821.33a34.85,34.85,0,0,1,1.42-6.3c.7-2.19,1.47-4.39,2.33-6.58s1.75-4.28,2.69-6.26,1.83-3.75,2.65-5.34,1.52-2.88,2.1-3.88.93-1.6,1-1.78a7.25,7.25,0,0,1,3.61-1.65,23.44,23.44,0,0,1,5.34-.63,9.19,9.19,0,0,1,4.34.82q1.51.82-.23,3.1a31.16,31.16,0,0,0-3.65,6.08q-1.92,4-3.65,8.54t-3.06,9a46.91,46.91,0,0,0-1.69,7.27c-.31,1.7-.34,2.61-.09,2.74.54.3,1.69-.28,3.42-1.74a72.34,72.34,0,0,0,6.17-6q3.55-3.84,7.58-8.86t7.76-10.23a6.06,6.06,0,0,1,3.11-2.19,12.64,12.64,0,0,1,4.2-.73,12,12,0,0,1,2.78.32,6.51,6.51,0,0,1,2.15.87,2.22,2.22,0,0,1,1,1.37,2.73,2.73,0,0,1-.46,1.91,11.09,11.09,0,0,0-1.05,2,27.73,27.73,0,0,0-1.14,3.2q-.56,1.83-1.05,3.93a40,40,0,0,0-.78,4.11,24.32,24.32,0,0,0-.18,5.94c.18,1.7.82,2.64,1.91,2.83.43.12,1.5-.38,3.2-1.51a42.09,42.09,0,0,0,6-5.11,85.16,85.16,0,0,0,7.44-8.59A77.81,77.81,0,0,0,385.18,796a2.54,2.54,0,0,1,1.73-1.1,12.3,12.3,0,0,1,3.11-.36,22,22,0,0,1,3.38.27,9.61,9.61,0,0,1,3,.92,3.68,3.68,0,0,1,1.69,1.55,2.36,2.36,0,0,1-.37,2.28,38.59,38.59,0,0,0-2.14,3.79c-.83,1.62-1.63,3.4-2.42,5.35s-1.51,3.95-2.15,6a36.68,36.68,0,0,0-1.33,5.85,11,11,0,0,0,.19,5c.42,1.31,1.46,1.9,3.1,1.78a16,16,0,0,0,7.26-2.6,60.79,60.79,0,0,0,8.77-6.44,112.31,112.31,0,0,0,8.95-8.73,100.94,100.94,0,0,0,7.81-9.45,3.16,3.16,0,0,1,2.19-1.28,4.88,4.88,0,0,1,2.56.32,3.47,3.47,0,0,1,1.74,1.51,1.93,1.93,0,0,1-.18,2.1,92.47,92.47,0,0,1-9.18,11.51,101.36,101.36,0,0,1-11.24,10.41,67.16,67.16,0,0,1-11.78,7.58,25.57,25.57,0,0,1-10.73,3,11.6,11.6,0,0,1-6.9-2.87,20.16,20.16,0,0,1-4.06-5.07,24.57,24.57,0,0,1-2.38-7c-.91,1.09-2.1,2.42-3.56,4a44.68,44.68,0,0,1-4.93,4.47,30,30,0,0,1-5.85,3.61,14.76,14.76,0,0,1-6.39,1.46,9.7,9.7,0,0,1-5.8-1.5,8.7,8.7,0,0,1-3-3.75,13.15,13.15,0,0,1-1-4.79,30.85,30.85,0,0,1,.23-4.66,52.53,52.53,0,0,1-4,4.7,43,43,0,0,1-5.53,4.89,34.11,34.11,0,0,1-6.67,3.88,18.29,18.29,0,0,1-7.53,1.6,16.06,16.06,0,0,1-1.74-.09,10.64,10.64,0,0,1-1.55-.28q-4.29-.9-5.48-4.34A17.78,17.78,0,0,1,312.47,821.33Z" transform="translate(-124.28 -155.32)"/><path d="M453.86,783.61a14.08,14.08,0,0,1,4.89.73,8.33,8.33,0,0,1,3.11,1.92,8.73,8.73,0,0,1,1.73,2.55,10.19,10.19,0,0,1,.78,2.74c.36-.06.73-.1,1.09-.13s.73,0,1.1,0a3.08,3.08,0,0,1,2.79,1.69,5.89,5.89,0,0,1,.41,3.33,15.1,15.1,0,0,1-1,3.57c-.49,1.15-.85,2-1.09,2.46l-2.47,4.16q-1.65,2.79-4,6.07c-.49,1.16-.91,2.33-1.28,3.52a28.69,28.69,0,0,0-.82,3.33,5.51,5.51,0,0,0,.73,4q1.09,1.65,4.75,1.74a8.36,8.36,0,0,0,4.75-1.83,36.26,36.26,0,0,0,5.16-4.57,58,58,0,0,0,5-6c1.58-2.2,3-4.25,4.25-6.17s2.26-3.56,3.06-4.93,1.24-2.15,1.37-2.33a3.38,3.38,0,0,1,1.41-1.46,3.89,3.89,0,0,1,1.87-.46,4.48,4.48,0,0,1,2,.46,4.12,4.12,0,0,1,1.55,1.23,3.49,3.49,0,0,1,.69,1.83,4.07,4.07,0,0,1-.55,2.24l-2.51,4.11c-1.13,1.82-2.5,3.85-4.11,6.07s-3.45,4.49-5.48,6.8a51.67,51.67,0,0,1-6.58,6.26A34.42,34.42,0,0,1,469,831a16.48,16.48,0,0,1-8,1.46,12.32,12.32,0,0,1-5.57-2,15.46,15.46,0,0,1-4.94-4.89,42.75,42.75,0,0,1-7.94,6.21,19.54,19.54,0,0,1-8.5,2.84,17.27,17.27,0,0,1-5-.78,12.1,12.1,0,0,1-7.95-7.31,16.84,16.84,0,0,1-1-7.44,36.4,36.4,0,0,1,3.93-11.88A54.27,54.27,0,0,1,432,795.8a45.12,45.12,0,0,1,10.41-8.68A22.86,22.86,0,0,1,453.86,783.61Zm-5.75,30.6a37.2,37.2,0,0,1,3.1-10.14,32.13,32.13,0,0,1,5.12-7.77c-.61.49-1.16,1-1.64,1.37a3.35,3.35,0,0,0-.92,1.1l.37-1.28a20.1,20.1,0,0,0,.64-2.65,4.85,4.85,0,0,0-.19-2.33q-.36-1.05-2.1-1.23a8.76,8.76,0,0,0-5.75,2.05,27.79,27.79,0,0,0-5.62,5.76,41.82,41.82,0,0,0-4.47,7.63,29.33,29.33,0,0,0-2.42,7.58,38.72,38.72,0,0,0-.37,4.06,16.41,16.41,0,0,0,.27,3.93,6.52,6.52,0,0,0,1.33,2.92,3.44,3.44,0,0,0,2.79,1.14,10.64,10.64,0,0,0,5.11-2.55,31,31,0,0,0,4.66-5A10.33,10.33,0,0,1,448.11,814.21Z" transform="translate(-124.28 -155.32)"/><path d="M517.16,784.52a11.69,11.69,0,0,1,2.28.05,7.43,7.43,0,0,1,2.2.59q2.28-5,5.06-10.37t6-10.46c2.13-3.4,4.34-6.65,6.62-9.72a72,72,0,0,1,6.9-8.09,34,34,0,0,1,6.94-5.48,13.4,13.4,0,0,1,6.67-2q4,0,5.39,2.7t.63,8a41.18,41.18,0,0,1-2.28,8.5q-1.83,5-4.7,11t-6.72,12.46q-3.82,6.54-8.35,13t-9.55,12.56A142.7,142.7,0,0,1,524,818.41a9.19,9.19,0,0,0,2.79,5.39c1.43,1.28,3.42,1.79,6,1.55a11.66,11.66,0,0,0,5-1.64,29.64,29.64,0,0,0,4.88-3.61,44.61,44.61,0,0,0,4.57-4.8q2.19-2.64,4.07-5.25c1.24-1.74,2.35-3.36,3.33-4.89s1.77-2.77,2.37-3.74c.13-.24.31-.55.55-.92s.49-.69.73-1a4.16,4.16,0,0,1,1.92-1.46,6.43,6.43,0,0,1,2.28-.46,4.73,4.73,0,0,1,1.92.37,2.6,2.6,0,0,1,1.24,1.09,2.43,2.43,0,0,1,.13,1.83,6.82,6.82,0,0,1-1.37,2.47c-.36.48-.85,1.2-1.46,2.14l-1.92,3q-2.37,3.57-5.34,7.81a55.41,55.41,0,0,1-6.71,7.9,36.66,36.66,0,0,1-8.27,6.08,19.67,19.67,0,0,1-9.82,2.32,22.76,22.76,0,0,1-3.15-.27,15.73,15.73,0,0,1-3.84-1.1,17.84,17.84,0,0,1-3.92-2.28,13,13,0,0,1-3.43-3.93,60.9,60.9,0,0,1-10.73,6.72,25.85,25.85,0,0,1-10.19,2.69,16.82,16.82,0,0,1-8.08-1.92,11,11,0,0,1-4.2-4.2,12.08,12.08,0,0,1-1.46-5.16,37.44,37.44,0,0,1,0-4.89,32.4,32.4,0,0,1,1.28-5.38,42.84,42.84,0,0,1,2.88-6.81,49.21,49.21,0,0,1,4.7-7.26,39.08,39.08,0,0,1,6.63-6.67,36.22,36.22,0,0,1,8.72-5.07A35.59,35.59,0,0,1,517.16,784.52Zm-1.55,17.26q.36-1.54,1-3.51c.39-1.31.86-2.76,1.41-4.34a6.41,6.41,0,0,0-1.73-1.51,3.28,3.28,0,0,0-2.2-.41,12,12,0,0,0-5.38,1.83,20.92,20.92,0,0,0-4.48,3.79,28.56,28.56,0,0,0-3.56,4.93,48.42,48.42,0,0,0-2.7,5.39,39.16,39.16,0,0,0-1.78,5.11,29.74,29.74,0,0,0-.82,4.07,9.83,9.83,0,0,0,.05,3.47,4.84,4.84,0,0,0,1,2.15,3.75,3.75,0,0,0,1.69,1.09,6.68,6.68,0,0,0,2.1.32c.37,0,.85,0,1.46-.09a9.26,9.26,0,0,0,1.56-.27,19.33,19.33,0,0,0,5.16-2.42,40.88,40.88,0,0,0,5.8-4.62,30.61,30.61,0,0,1,.27-9c.12-1,.27-2,.46-2.92A28.67,28.67,0,0,1,515.61,801.78Zm36.44-49.32q-2.46,3.28-6.26,8.86t-7.71,12.56q-3.93,7-7.49,14.89A93.27,93.27,0,0,0,525,804.71c1.7-2.26,3.74-5.16,6.12-8.73s4.88-7.58,7.53-12.05,5.36-9.26,8.13-14.34,5.43-10.28,8-15.58c.43-1,.78-1.94,1.05-2.74a4.37,4.37,0,0,0,.32-1.91c0-.61-.38-.69-1.14-.23A12.08,12.08,0,0,0,552.05,752.46Z" transform="translate(-124.28 -155.32)"/><path d="M581.19,778a3.9,3.9,0,0,1,2.14,1.27,7.6,7.6,0,0,1,1.6,2.47,6.08,6.08,0,0,1,.51,2.51,1.15,1.15,0,0,1-1.15,1.24,11.88,11.88,0,0,0-4.38,1.37,15.23,15.23,0,0,0-3.52,2.6,12.21,12.21,0,0,0-2.37,3.29,6.89,6.89,0,0,0-.78,3.42A18.37,18.37,0,0,0,574,800c.43,1.5.95,3.12,1.56,4.89l1.55,4.93q6.57-3.47,13.47-7.49a82.9,82.9,0,0,0,13.29-9.68,2.6,2.6,0,0,1,2.38-.64,4.86,4.86,0,0,1,2.37,1.19,3.8,3.8,0,0,1,1.23,2.24,3.22,3.22,0,0,1-1,2.69,48.69,48.69,0,0,1-6.57,5.8q-3.66,2.7-7.54,5.11t-7.94,4.62c-2.71,1.46-5.32,2.83-7.81,4.11a35.93,35.93,0,0,1,.45,4.29,24.61,24.61,0,0,1-.18,4.2,20,20,0,0,1-1.19,4.48,20.5,20.5,0,0,1-3.51,5.66,18.49,18.49,0,0,1-4.39,3.65,17.25,17.25,0,0,1-4.84,2,22.21,22.21,0,0,1-8.54.32,7.3,7.3,0,0,1-4.15-1.92,7.17,7.17,0,0,1-1.88-3.29,12.41,12.41,0,0,1-.36-3.61,17.71,17.71,0,0,1,.36-3,16.88,16.88,0,0,1,4.94-7.45,54.63,54.63,0,0,1,9-6.53l-1-4c-.67-2.07-1.25-4.18-1.73-6.35a20.47,20.47,0,0,1-.55-5.89,22,22,0,0,1,2.47-9.13,29.21,29.21,0,0,1,5.2-7.22,23.61,23.61,0,0,1,6.3-4.61A10.72,10.72,0,0,1,581.19,778Zm-15.71,50.69a15.78,15.78,0,0,0,.55-4.11,41.43,41.43,0,0,0-5,3.51,7.06,7.06,0,0,0-2.46,3.34,3.68,3.68,0,0,0,0,3,1.91,1.91,0,0,0,1.78,1.14A4,4,0,0,0,563,834,12.57,12.57,0,0,0,565.48,828.73Z" transform="translate(-124.28 -155.32)"/><path d="M692.89,708.71a7.34,7.34,0,0,1,3.06-4.25,8.51,8.51,0,0,1,4.53-1.32,9.08,9.08,0,0,1,3.15.55,7.13,7.13,0,0,1,2.55,1.55,5.45,5.45,0,0,1,1.47,2.37,5,5,0,0,1-.14,3q-3.93,10.59-7.72,21.42t-7.17,21.23q-3.37,10.41-6.26,20.1t-5.11,17.9q-2.24,8.22-3.75,14.66t-2,10.37a30.26,30.26,0,0,0-.28,3.42c0,.82.16,1.2.46,1.14,0,.06.55-.91,1.65-2.92s2.57-4.78,4.43-8.31l6.53-12.47q3.74-7.17,8-15.39t8.68-17q4.43-8.76,8.72-17.4t8.17-16.58q3.88-7.93,6.85-14.43t4.89-11a38.11,38.11,0,0,0,2.28-6.48,2.27,2.27,0,0,1,2.1-1.79,9.75,9.75,0,0,1,4.12.28,16.49,16.49,0,0,1,4.38,1.87,6.68,6.68,0,0,1,2.83,3c.12.43-.26,1.83-1.14,4.21s-2.12,5.6-3.7,9.68-3.43,8.74-5.53,14.16-4.29,11.25-6.57,17.49-4.57,12.72-6.85,19.45S721,780.65,719,787.35s-3.79,13.2-5.35,19.5a170.36,170.36,0,0,0-3.42,17.49,75.67,75.67,0,0,0-.73,16.08q.54,6.66,3.74,9.59a2.57,2.57,0,0,1,1,1.83,1.83,1.83,0,0,1-.87,1.41,6.44,6.44,0,0,1-2.23,1,12.38,12.38,0,0,1-3.15.37,14,14,0,0,1-3.25-.41,7.87,7.87,0,0,1-3-1.42h.1a11.53,11.53,0,0,1-3.43-4.57,25.47,25.47,0,0,1-1.78-6.39,42.54,42.54,0,0,1-.41-7.86q.13-4.29.77-9.13a150.74,150.74,0,0,1,2.93-14.8q1.92-7.75,4.29-15.52t4.93-15.17q2.57-7.39,4.84-13.7-2.82,5.85-5.93,12t-6.26,12.28q-3.15,6.12-6.21,11.92l-5.71,10.82Q686.6,819,684,823.89c-1.74,3.29-3,5.81-3.88,7.58a6.85,6.85,0,0,1-1.83,2.24,10,10,0,0,1-2.74,1.55,17.58,17.58,0,0,1-3.24.87,20.61,20.61,0,0,1-3.24.27,13.18,13.18,0,0,1-4.62-.73,3.6,3.6,0,0,1-2.42-2.28,36.33,36.33,0,0,1-.73-7.81,69.74,69.74,0,0,1,.73-9.73A150.56,150.56,0,0,1,665.17,800q2.15-8.6,5-17.49t6-17.59q3.2-8.67,6.39-16.25-1.83,3.82-3.92,8.08t-4.48,8.72q-3.66,7.22-7.54,14.84t-7.8,14.94q-3.93,7.31-7.72,13.93T643.85,821a82.94,82.94,0,0,1-6.49,8.64,15.17,15.17,0,0,1-5.39,4.33,24.32,24.32,0,0,1-3.42,1.06,13.06,13.06,0,0,1-2.61.31,7.55,7.55,0,0,1-4.84-1.55,4.68,4.68,0,0,1-1.55-1.55,38.29,38.29,0,0,0,5.34-6q3.35-4.38,7.49-10.69t8.91-14.15q4.74-7.86,9.77-16.4t10.05-17.4q5-8.85,9.64-17.17t8.58-15.66q4-7.37,6.94-13t4.75-9.05a32.15,32.15,0,0,0,1.87-3.88Z" transform="translate(-124.28 -155.32)"/><path d="M758.93,784a8.94,8.94,0,0,1,4.93,1.19,7.8,7.8,0,0,1,2.74,2.93,9.73,9.73,0,0,1,1.1,3.62,13.8,13.8,0,0,1,0,3.16,21.68,21.68,0,0,1-4.52,8.37,34.81,34.81,0,0,1-7,6.18,43,43,0,0,1-8.13,4.21,56.25,56.25,0,0,1-7.9,2.47,19.09,19.09,0,0,0,.32,5.4A8.72,8.72,0,0,0,742,825a5.68,5.68,0,0,0,2.6,1.87,8,8,0,0,0,3.47.37,17.59,17.59,0,0,0,7.08-2,43.49,43.49,0,0,0,7-4.48,64.76,64.76,0,0,0,6.54-5.8c2.06-2.1,3.91-4.09,5.52-6s2.95-3.53,4-4.93,1.75-2.35,2-2.83a6.51,6.51,0,0,1,2.11-2.06,4.81,4.81,0,0,1,2.55-.87,3.44,3.44,0,0,1,2.88,1.37q1,1.38-.32,4.3a24.87,24.87,0,0,1-1.92,2.83c-1.15,1.58-2.74,3.51-4.75,5.8s-4.35,4.72-7,7.3a72.59,72.59,0,0,1-8.86,7.27,55.3,55.3,0,0,1-10.28,5.66,32.89,32.89,0,0,1-11.18,2.56,19.66,19.66,0,0,1-5.9-1.28,16.86,16.86,0,0,1-5.93-3.8,16.43,16.43,0,0,1-4.07-6.64,17.93,17.93,0,0,1-.09-9.7,55.14,55.14,0,0,1,1.92-5.44,47.45,47.45,0,0,1,3.24-6.45,51.8,51.8,0,0,1,4.62-6.5,38,38,0,0,1,5.93-5.76,29.9,29.9,0,0,1,7.22-4.16A23.44,23.44,0,0,1,758.93,784Zm-3.19,7.68a6.49,6.49,0,0,0-3.52,1.68,26.25,26.25,0,0,0-3.88,4,47,47,0,0,0-3.66,5.39,50.83,50.83,0,0,0-2.92,5.8,31.52,31.52,0,0,0,4.29-1.46,19.11,19.11,0,0,0,4.2-2.42,19.79,19.79,0,0,0,3.75-3.74,19,19,0,0,0,2.83-5.35,5,5,0,0,0,.28-3A1.23,1.23,0,0,0,755.74,791.65Z" transform="translate(-124.28 -155.32)"/><path d="M808.07,784.52a11.8,11.8,0,0,1,2.29.05,7.37,7.37,0,0,1,2.19.59q2.28-5,5.07-10.37t6-10.46c2.13-3.4,4.34-6.65,6.62-9.72a72,72,0,0,1,6.9-8.09,34,34,0,0,1,6.94-5.48,13.4,13.4,0,0,1,6.67-2c2.68,0,4.47.9,5.39,2.7s1.12,4.46.63,8a41.18,41.18,0,0,1-2.28,8.5,118.55,118.55,0,0,1-4.7,11q-2.88,5.93-6.72,12.46t-8.35,13q-4.53,6.45-9.55,12.56a142.7,142.7,0,0,1-10.23,11.24,9.25,9.25,0,0,0,2.79,5.39c1.43,1.28,3.42,1.79,6,1.55a11.66,11.66,0,0,0,5-1.64,30.13,30.13,0,0,0,4.89-3.61,45.54,45.54,0,0,0,4.56-4.8q2.19-2.64,4.07-5.25c1.24-1.74,2.36-3.36,3.33-4.89s1.77-2.77,2.38-3.74a9.92,9.92,0,0,1,.54-.92c.25-.36.49-.69.73-1a4.16,4.16,0,0,1,1.92-1.46,6.44,6.44,0,0,1,2.29-.46,4.68,4.68,0,0,1,1.91.37,2.6,2.6,0,0,1,1.24,1.09,2.43,2.43,0,0,1,.13,1.83,6.82,6.82,0,0,1-1.37,2.47c-.36.48-.85,1.2-1.46,2.14l-1.92,3q-2.37,3.57-5.34,7.81a55.41,55.41,0,0,1-6.71,7.9,36.44,36.44,0,0,1-8.27,6.08,19.67,19.67,0,0,1-9.82,2.32,22.76,22.76,0,0,1-3.15-.27,15.54,15.54,0,0,1-3.83-1.1,17.9,17.9,0,0,1-3.93-2.28,13.14,13.14,0,0,1-3.43-3.93,60.9,60.9,0,0,1-10.73,6.72,25.85,25.85,0,0,1-10.18,2.69,16.84,16.84,0,0,1-8.09-1.92,11,11,0,0,1-4.2-4.2,12.08,12.08,0,0,1-1.46-5.16,35.66,35.66,0,0,1,.05-4.89,31.26,31.26,0,0,1,1.27-5.38A42.84,42.84,0,0,1,777,806a49.21,49.21,0,0,1,4.7-7.26,39.08,39.08,0,0,1,6.63-6.67A36.22,36.22,0,0,1,797,787,35.59,35.59,0,0,1,808.07,784.52Zm-1.55,17.26q.36-1.54,1-3.51c.39-1.31.87-2.76,1.41-4.34a6.26,6.26,0,0,0-1.73-1.51A3.26,3.26,0,0,0,805,792a12,12,0,0,0-5.39,1.83,20.92,20.92,0,0,0-4.48,3.79,28.56,28.56,0,0,0-3.56,4.93,50.22,50.22,0,0,0-2.7,5.39,39.16,39.16,0,0,0-1.78,5.11,29.74,29.74,0,0,0-.82,4.07,9.83,9.83,0,0,0,0,3.47,5,5,0,0,0,1,2.15,3.75,3.75,0,0,0,1.69,1.09,6.68,6.68,0,0,0,2.1.32c.37,0,.85,0,1.46-.09a9.26,9.26,0,0,0,1.56-.27,19.33,19.33,0,0,0,5.16-2.42,40.88,40.88,0,0,0,5.8-4.62,30.61,30.61,0,0,1,.27-9c.12-1,.28-2,.46-2.92A28.67,28.67,0,0,1,806.52,801.78ZM843,752.46q-2.46,3.28-6.25,8.86T829,773.88q-3.93,7-7.49,14.89a94.14,94.14,0,0,0-5.57,15.94c1.7-2.26,3.74-5.16,6.12-8.73s4.88-7.58,7.53-12.05,5.36-9.26,8.13-14.34,5.44-10.28,8-15.58c.43-1,.78-1.94,1-2.74a4.37,4.37,0,0,0,.32-1.91c0-.61-.38-.69-1.14-.23A12.08,12.08,0,0,0,843,752.46Z" transform="translate(-124.28 -155.32)"/><path d="M853.47,792.19a5.91,5.91,0,0,1,1.78-1.46,14.72,14.72,0,0,1,2.51-1.09,16.7,16.7,0,0,1,2.83-.69,18.6,18.6,0,0,1,2.83-.23,7.21,7.21,0,0,1,3.57.78,2.05,2.05,0,0,1,1.09,2.33,11.61,11.61,0,0,1-1.41,3.15q-1.24,2.14-3.06,5.07c-.92,1.52-1.91,3.14-3,4.84s-2.06,3.42-3,5.16-1.74,3.41-2.47,5a24.28,24.28,0,0,0-1.55,4.34c-.55,2.56-.56,4.33,0,5.3a2.39,2.39,0,0,0,2.15,1.46,13.59,13.59,0,0,0,5.62-1.41,36.71,36.71,0,0,0,6.07-3.61,76.13,76.13,0,0,0,5.94-4.8c2-1.73,3.71-3.41,5.3-5s2.9-3,4-4.25,1.78-2.07,2.15-2.56a7.13,7.13,0,0,1,2.78-2.1,4.26,4.26,0,0,1,2.88-.36,2.08,2.08,0,0,1,1.37,2c.12,1.09-.43,2.74-1.65,4.93a51.87,51.87,0,0,1-3.28,4.06q-2.19,2.52-5.12,5.35t-6.39,5.71a71.86,71.86,0,0,1-7.13,5.2,43.14,43.14,0,0,1-7.3,3.79,18.05,18.05,0,0,1-11.88.82,10.53,10.53,0,0,1-4.15-2.14,10.39,10.39,0,0,1-2.83-4,13.35,13.35,0,0,1-.87-6,43.55,43.55,0,0,1,2-8.27q1.51-4.34,3.34-8.45c1.21-2.74,2.43-5.23,3.65-7.49A62.64,62.64,0,0,1,853.47,792.19Zm10.78-6.12a4.92,4.92,0,0,1-2.7-1.82,5.52,5.52,0,0,1-.91-2.47,8.08,8.08,0,0,1,.09-2.42,5.58,5.58,0,0,1,.5-1.6h-.09a5.1,5.1,0,0,1,1-1.78,1.37,1.37,0,0,0,.41-2.69,3,3,0,0,1,.46-2.1,16.89,16.89,0,0,1,2.87-3.8,18,18,0,0,1,3.89-3,16.08,16.08,0,0,1,4.2-1.69,6.19,6.19,0,0,1,3.74.13,5.36,5.36,0,0,1,2.29,1.56,6.56,6.56,0,0,1,1.18,2.14,9.08,9.08,0,0,1,.41,2.42,13.31,13.31,0,0,1-.13,2.47,14.29,14.29,0,0,1-.6,2.6l-.59,1.78a29,29,0,0,1-3,4.53,20.36,20.36,0,0,1-3.79,3.65,14.29,14.29,0,0,1-4.38,2.19,8.32,8.32,0,0,1-4.79,0Zm2.83-10-.09.45a2.33,2.33,0,0,0,0,1.24c.09.45.5.84,1.23,1.14a1.28,1.28,0,0,0,.87-.23,10.72,10.72,0,0,0,1.37-.91,11,11,0,0,0,1.6-1.56,9.09,9.09,0,0,0,1.37-2.14v.09a3.53,3.53,0,0,0,.23-1.05q0-.6-1.05-.87c-.49-.12-1.19.18-2.1.92s-1.71,1.4-2.38,2Z" transform="translate(-124.28 -155.32)"/><path d="M910.64,783.61a14.08,14.08,0,0,1,4.89.73,8.25,8.25,0,0,1,3.11,1.92,8.54,8.54,0,0,1,1.73,2.55,10.19,10.19,0,0,1,.78,2.74c.36-.06.73-.1,1.09-.13s.74,0,1.1,0a3.08,3.08,0,0,1,2.79,1.69,5.89,5.89,0,0,1,.41,3.33,15.1,15.1,0,0,1-1,3.57c-.49,1.15-.85,2-1.09,2.46L922,806.58c-1.09,1.86-2.44,3.88-4,6.07-.49,1.16-.91,2.33-1.28,3.52a28.69,28.69,0,0,0-.82,3.33,5.51,5.51,0,0,0,.73,4c.73,1.1,2.32,1.68,4.75,1.74a8.33,8.33,0,0,0,4.75-1.83,35.73,35.73,0,0,0,5.16-4.57,58,58,0,0,0,5-6c1.58-2.2,3-4.25,4.25-6.17s2.26-3.56,3.06-4.93,1.24-2.15,1.37-2.33a3.38,3.38,0,0,1,1.41-1.46,3.89,3.89,0,0,1,1.87-.46,4.48,4.48,0,0,1,2,.46,4.12,4.12,0,0,1,1.55,1.23,3.41,3.41,0,0,1,.69,1.83,4.07,4.07,0,0,1-.55,2.24l-2.51,4.11c-1.13,1.82-2.5,3.85-4.11,6.07s-3.44,4.49-5.48,6.8a51,51,0,0,1-6.58,6.26,34.42,34.42,0,0,1-7.4,4.52,16.48,16.48,0,0,1-8,1.46,12.36,12.36,0,0,1-5.57-2,15.46,15.46,0,0,1-4.94-4.89,42.75,42.75,0,0,1-7.94,6.21,19.54,19.54,0,0,1-8.5,2.84,17.27,17.27,0,0,1-5-.78,12.1,12.1,0,0,1-8-7.31,16.84,16.84,0,0,1-1-7.44,36.4,36.4,0,0,1,3.93-11.88,54.27,54.27,0,0,1,7.9-11.46,45.33,45.33,0,0,1,10.41-8.68A22.86,22.86,0,0,1,910.64,783.61Zm-5.75,30.6A36.87,36.87,0,0,1,908,804.07a31.82,31.82,0,0,1,5.11-7.77c-.61.49-1.16,1-1.64,1.37a3.35,3.35,0,0,0-.92,1.1l.37-1.28a18.63,18.63,0,0,0,.64-2.65,5,5,0,0,0-.18-2.33c-.25-.7-1-1.11-2.11-1.23a8.76,8.76,0,0,0-5.75,2.05,27.79,27.79,0,0,0-5.62,5.76,41.82,41.82,0,0,0-4.47,7.63A29.33,29.33,0,0,0,891,814.3a38.72,38.72,0,0,0-.37,4.06,15.89,15.89,0,0,0,.28,3.93,6.4,6.4,0,0,0,1.32,2.92,3.44,3.44,0,0,0,2.79,1.14,10.64,10.64,0,0,0,5.11-2.55,30.61,30.61,0,0,0,4.66-5A10.48,10.48,0,0,1,904.89,814.21Z" transform="translate(-124.28 -155.32)"/></svg>